<svg width="16" height="16" viewBox="0 0 16 16" fill="none" xmlns="http://www.w3.org/2000/svg">
<path fill-rule="evenodd" clip-rule="evenodd" d="M15.9999 8.00034L12.2426 4.36657C11.1174 3.27837 9.59127 2.66699 7.99997 2.66699C6.40867 2.66699 4.88253 3.27837 3.75731 4.36657L0 8.00029L3.75735 11.6341C4.88257 12.7223 6.40867 13.3336 7.99997 13.3336C9.59127 13.3336 11.1174 12.7223 12.2426 11.6341L15.9999 8.00034ZM6.08328 8.00034C6.08328 7.01369 6.91756 6.17139 7.99995 6.17139C9.08234 6.17139 9.91662 7.01369 9.91662 8.00034C9.91662 8.987 9.08234 9.82929 7.99995 9.82929C6.91756 9.82929 6.08328 8.987 6.08328 8.00034ZM7.99995 4.67139C6.13682 4.67139 4.58328 6.13837 4.58328 8.00034C4.58328 9.86232 6.13682 11.3293 7.99995 11.3293C9.86308 11.3293 11.4166 9.86232 11.4166 8.00034C11.4166 6.13837 9.86308 4.67139 7.99995 4.67139Z" fill="#4A505D"/>
</svg>
